PathFileType	4	(X/Y/Z)	D:\TRACE\v60_Jaco2_6-2-23\JustBodyDRS_Motion1_4-v60.trc
DataRate	CameraRate	NumFrames	NumMarkers	Units	OrigDataRate	OrigDataStartFrame	OrigNumFrames
100.00	100.00	      24	9	mm	100.00	3479	      6956
Frame#	Time	front left toe			Front right toe			aft left toe			aft right toe			Arm			FL body			FR body			AL Body			AR Body			
		X1	Y1	Z1	X2	Y2	Z2	X3	Y3	Z3	X4	Y4	Z4	X5	Y5	Z5	X6	Y6	Z6	X7	Y7	Z7	X8	Y8	Z8	X9	Y9	Z9	

3479	34.780	-187.81583	18.26382	-206.97679	189.03525	32.65820	-208.88405	-166.14923	34.17874	421.21747	203.90851	19.30942	408.57693	-81.85047	1217.11499	-333.97064	-64.98893	584.37695	-344.40961	95.54213	582.56207	-347.81235	-45.25159	558.03796	601.52734	111.29023	550.70044	598.49799	
3480	34.790	-187.37680	18.13341	-206.73755	190.60893	41.68370	-208.81015	-161.94731	43.33786	420.95526	204.75056	19.55294	408.79718	-81.03865	1217.73242	-332.11795	-63.95562	584.13733	-344.77216	96.66002	582.29388	-348.00848	-44.13066	558.36432	601.07605	112.14590	550.97858	598.31921	
3481	34.800	-186.44891	17.85979	-206.93018	193.28300	52.83078	-209.79312	-159.80934	53.88011	420.34598	205.82964	19.67085	408.96902	-78.91943	1217.89075	-332.40060	-62.69003	583.80627	-344.93906	97.36944	581.93152	-347.87357	-42.82413	558.03998	600.94153	113.48940	550.65906	598.05060	
3482	34.810	-185.97482	17.80337	-206.67079	196.31560	64.47675	-211.33084	-160.33954	64.62054	419.28543	206.09834	19.33186	408.60016	-78.46876	1216.77100	-332.96661	-62.12177	583.87866	-344.80655	98.03430	581.80115	-348.26700	-41.56482	557.43427	601.05054	115.06612	549.89587	597.77814	
3483	34.820	-185.37425	17.56266	-206.97943	198.83304	76.07385	-213.04910	-160.31841	75.32744	418.00418	206.86894	19.27585	408.55609	-77.46409	1215.29065	-334.07755	-61.16750	583.76599	-344.91653	99.51668	581.25989	-348.45676	-39.34709	556.58472	601.05164	116.49767	548.89233	597.63239	
3484	34.830	-184.88956	17.26281	-206.86786	199.77000	87.30061	-214.54393	-161.27693	87.91467	416.35455	208.06027	19.40333	408.58932	-75.19415	1215.06836	-335.77667	-59.34347	582.93506	-344.62784	100.27621	580.74286	-348.70743	-37.98021	556.42841	600.75757	118.40154	548.53156	597.32684	
3485	34.840	-184.71255	17.15750	-206.75485	201.47577	98.08891	-215.54472	-161.04422	99.93026	415.11829	208.55872	19.48245	408.62872	-75.22398	1213.84973	-335.50491	-59.43635	582.30927	-345.07123	100.67661	579.61578	-348.87811	-36.37900	556.38770	600.74084	120.10446	548.49548	597.19385	
3486	34.850	-183.98259	16.83881	-206.82127	203.22356	108.42806	-216.55072	-159.43964	111.24744	414.62213	208.82529	19.28345	408.44867	-73.86092	1213.55334	-335.19131	-58.32837	581.60089	-345.03497	101.94383	579.06549	-349.13538	-34.57661	556.37122	600.74371	121.50793	548.48950	597.10822	
3487	34.860	-183.23651	16.56963	-206.85599	205.12904	117.90365	-216.80162	-156.58560	121.57233	414.61664	209.54492	19.34074	408.37265	-73.56857	1213.43054	-335.91736	-57.23851	580.44641	-345.10297	102.50825	578.01373	-349.11746	-33.10301	556.57330	600.60083	123.20800	548.74762	596.91974	
3488	34.870	-182.88663	16.46975	-206.86755	207.46091	126.43030	-217.39471	-153.06216	130.40393	414.46811	210.56161	19.58677	408.30197	-72.22131	1212.91797	-336.39893	-56.86855	580.04187	-345.21512	103.81007	577.37140	-349.44641	-31.35599	556.99438	600.81750	124.83145	548.99097	596.94629	
3489	34.880	-182.49364	16.36487	-206.95871	209.94969	134.00444	-217.69379	-149.59230	138.07761	414.29770	210.99422	19.62046	408.17200	-72.47782	1211.47229	-336.36316	-55.53207	579.20807	-344.84250	104.40398	576.77374	-349.73480	-29.75135	557.57001	600.68195	126.62085	549.42676	596.72430	
3490	34.890	-182.23398	16.33496	-206.94084	211.76276	140.31184	-218.60510	-146.68513	144.35179	413.95517	211.10559	19.61975	407.85873	-71.24430	1210.58411	-337.28506	-55.22215	578.93781	-345.13693	104.99497	576.08960	-349.50208	-27.77056	557.82886	600.65796	128.19241	549.87189	596.53149	
3491	34.900	-181.89665	16.39649	-206.86896	213.81204	145.98354	-219.57646	-145.73735	149.08635	413.16321	211.49794	19.78132	407.73773	-69.51262	1210.05884	-338.50543	-54.30108	578.72913	-344.87601	106.05312	575.89679	-349.88330	-26.16566	558.44647	600.87378	130.20171	550.27594	596.34570	
3492	34.910	-181.24695	16.42569	-206.79663	215.71150	148.71786	-220.15230	-144.72321	151.15599	413.19440	212.15646	20.03986	407.67331	-68.30109	1209.92834	-339.28693	-53.94336	578.68524	-344.79938	106.65640	575.76910	-349.97336	-24.21181	559.32397	600.80560	132.22670	550.66333	596.45862	
3493	34.920	-180.60977	16.39123	-206.84541	217.25171	147.06958	-220.39211	-142.99065	151.17722	413.68930	212.71689	20.25046	407.67737	-67.56122	1209.90356	-339.80984	-53.23016	578.52448	-344.84705	107.14539	575.61938	-350.14642	-22.50367	560.10284	600.80524	134.30412	551.31598	596.16925	
3494	34.930	-180.25014	16.32978	-206.88661	218.48036	143.58125	-220.49010	-141.24966	149.46249	414.26266	212.73546	20.42644	407.60944	-66.83998	1209.89709	-339.72626	-51.81129	578.02710	-344.72864	108.06476	575.23199	-350.42319	-20.44257	560.73511	600.58276	135.93114	551.73383	596.22040	
3495	34.940	-179.98222	16.29851	-206.83347	220.18748	138.87706	-221.00786	-137.79836	145.89848	415.94598	213.38412	20.66492	407.38742	-66.10216	1210.42493	-340.39975	-51.92742	577.96375	-345.10373	108.38887	574.61597	-350.49988	-18.58937	561.35425	600.67029	137.64615	552.54803	595.60980	
3496	34.950	-179.52617	16.11338	-206.90120	221.02348	133.36380	-221.36786	-134.98508	142.08574	416.59937	213.86391	20.85504	407.28690	-64.07466	1210.17554	-340.78003	-50.92596	577.57336	-345.04153	109.44379	574.16199	-351.04614	-16.97483	561.92163	600.58661	139.53598	552.95563	595.43561	
3497	34.960	-179.30284	15.88852	-206.85039	221.80701	127.83992	-222.39746	-133.08885	137.64352	417.19431	214.09706	20.84929	407.22992	-63.41655	1209.56604	-341.02118	-49.95951	577.19830	-345.05807	109.91376	573.82349	-351.30133	-14.88170	562.22809	600.41455	141.67477	553.23706	594.99207	
3498	34.970	-179.38731	15.93207	-206.82112	223.19594	122.23161	-223.50842	-131.67166	132.49614	417.22391	214.20079	20.71176	407.01376	-61.66476	1209.28760	-341.84558	-49.51046	577.02124	-345.23422	110.72636	573.41766	-351.57245	-12.86324	562.59363	600.24304	143.68182	553.42468	594.75165	
3499	34.980	-179.15384	15.78041	-206.78000	224.40419	115.73318	-225.02127	-127.98648	125.12303	417.38211	214.40013	20.64864	406.84161	-60.50988	1208.76709	-342.73993	-49.18773	576.64502	-345.33823	110.94406	572.80652	-351.44653	-10.73487	562.40033	600.05804	145.25755	553.54144	594.27130	
3500	34.990	-178.87970	15.49108	-206.72179	226.45378	108.86140	-226.45779	-124.56969	116.50819	417.44455	215.05128	20.88701	406.82159	-59.46083	1208.11694	-343.64728	-48.36489	575.95807	-345.56024	112.14777	572.39587	-352.45200	-8.82097	562.59436	599.86658	147.44713	553.93762	593.74457	
3501	35.000	-178.68961	15.29937	-206.69870	228.04616	101.29203	-227.98444	-121.73991	108.01974	417.07410	215.35594	20.93399	406.69238	-58.95213	1207.45776	-344.58920	-47.27040	575.05951	-345.96945	112.67802	571.77057	-353.20419	-7.02367	563.05548	599.67548	149.04755	554.07684	593.29755	
3502	35.010	-178.45139	15.19936	-206.74477	229.81067	93.22628	-229.30444	-118.29362	99.66973	416.10434	215.49606	20.93631	406.56055	-58.36364	1207.09949	-345.30212	-47.00460	574.76538	-346.16354	113.58239	571.15668	-353.40134	-5.28765	563.76038	599.05933	151.20575	554.50873	592.75470	
